<svg width="239" height="46" viewBox="0 0 239 46" fill="none" xmlns="http://www.w3.org/2000/svg">
<path d="M147.183 25.8467H141.285V21.77H147.183C148.053 21.77 148.751 21.625 149.277 21.335C149.814 21.0449 150.207 20.6475 150.454 20.1426C150.711 19.627 150.84 19.0469 150.84 18.4023C150.84 17.7363 150.711 17.1187 150.454 16.5493C150.207 15.9692 149.814 15.502 149.277 15.1475C148.751 14.793 148.053 14.6157 147.183 14.6157H143.187V34H137.934V10.5391H147.183C149.052 10.5391 150.652 10.8774 151.984 11.5542C153.327 12.231 154.353 13.1602 155.062 14.3418C155.782 15.5127 156.142 16.8555 156.142 18.3701C156.142 19.8848 155.782 21.2007 155.062 22.3179C154.353 23.4351 153.327 24.3052 151.984 24.9282C150.652 25.5405 149.052 25.8467 147.183 25.8467ZM162.99 13V34H158.725V13H162.99ZM162.43 26.084L161.363 26.1113C161.363 25.0723 161.491 24.1198 161.746 23.2539C162.01 22.3789 162.384 21.6178 162.867 20.9707C163.35 20.3236 163.929 19.8223 164.604 19.4668C165.287 19.1113 166.039 18.9336 166.859 18.9336C167.589 18.9336 168.254 19.0384 168.855 19.248C169.457 19.4577 169.977 19.7904 170.414 20.2461C170.852 20.7018 171.189 21.2988 171.426 22.0371C171.663 22.7754 171.781 23.6732 171.781 24.7305V34H167.488V24.7031C167.488 24.0742 167.397 23.582 167.215 23.2266C167.042 22.8711 166.786 22.6204 166.449 22.4746C166.121 22.3288 165.72 22.2559 165.246 22.2559C164.69 22.2559 164.23 22.3561 163.865 22.5566C163.501 22.748 163.214 23.0169 163.004 23.3633C162.794 23.7096 162.644 24.1152 162.553 24.5801C162.471 25.0449 162.43 25.5462 162.43 26.084ZM182.404 30.4727V24.1289C182.404 23.6823 182.336 23.2995 182.199 22.9805C182.062 22.6615 181.848 22.4108 181.557 22.2285C181.265 22.0462 180.887 21.9551 180.422 21.9551C180.03 21.9551 179.688 22.0234 179.396 22.1602C179.114 22.2969 178.895 22.4928 178.74 22.748C178.594 23.0033 178.521 23.3177 178.521 23.6914H174.256C174.256 23.026 174.406 22.4062 174.707 21.832C175.008 21.2578 175.436 20.752 175.992 20.3145C176.557 19.877 177.232 19.5397 178.016 19.3027C178.799 19.0566 179.679 18.9336 180.654 18.9336C181.812 18.9336 182.842 19.1296 183.744 19.5215C184.656 19.9043 185.376 20.4831 185.904 21.2578C186.433 22.0234 186.697 22.9896 186.697 24.1562V30.3496C186.697 31.2428 186.747 31.9447 186.848 32.4551C186.957 32.9564 187.112 33.3939 187.312 33.7676V34H183.006C182.805 33.5716 182.655 33.043 182.555 32.4141C182.454 31.776 182.404 31.1289 182.404 30.4727ZM182.938 24.9766L182.965 27.3281H180.846C180.372 27.3281 179.962 27.3874 179.615 27.5059C179.278 27.6243 179.005 27.7884 178.795 27.998C178.585 28.1986 178.43 28.4355 178.33 28.709C178.239 28.9733 178.193 29.265 178.193 29.584C178.193 29.8848 178.266 30.1582 178.412 30.4043C178.558 30.6413 178.758 30.8281 179.014 30.9648C179.269 31.1016 179.565 31.1699 179.902 31.1699C180.458 31.1699 180.932 31.0605 181.324 30.8418C181.725 30.623 182.035 30.3587 182.254 30.0488C182.473 29.7298 182.582 29.4336 182.582 29.1602L183.607 30.9375C183.443 31.3021 183.243 31.6803 183.006 32.0723C182.769 32.4551 182.468 32.8151 182.104 33.1523C181.739 33.4805 181.297 33.7493 180.777 33.959C180.267 34.1686 179.652 34.2734 178.932 34.2734C178.002 34.2734 177.159 34.0866 176.402 33.7129C175.646 33.3301 175.04 32.806 174.584 32.1406C174.137 31.4753 173.914 30.7096 173.914 29.8438C173.914 29.069 174.055 28.3809 174.338 27.7793C174.62 27.1777 175.044 26.6673 175.609 26.248C176.184 25.8288 176.904 25.5143 177.77 25.3047C178.635 25.0859 179.647 24.9766 180.805 24.9766H182.938ZM193.779 22.6523V34H189.514V19.207H193.52L193.779 22.6523ZM198.195 19.0977L198.127 23.0762C197.945 23.0488 197.708 23.026 197.416 23.0078C197.124 22.9805 196.874 22.9668 196.664 22.9668C196.117 22.9668 195.643 23.0352 195.242 23.1719C194.85 23.2995 194.522 23.4909 194.258 23.7461C194.003 24.0013 193.811 24.3203 193.684 24.7031C193.556 25.0768 193.492 25.5098 193.492 26.002L192.686 25.6055C192.686 24.6302 192.781 23.737 192.973 22.9258C193.164 22.1146 193.442 21.4128 193.807 20.8203C194.171 20.2188 194.618 19.7539 195.146 19.4258C195.675 19.0977 196.277 18.9336 196.951 18.9336C197.17 18.9336 197.393 18.9473 197.621 18.9746C197.849 19.002 198.04 19.043 198.195 19.0977ZM204.225 22.3105V34H199.959V19.207H203.965L204.225 22.3105ZM203.678 26.084L202.598 26.1113C202.598 25.0723 202.721 24.1198 202.967 23.2539C203.222 22.3789 203.591 21.6178 204.074 20.9707C204.557 20.3236 205.154 19.8223 205.865 19.4668C206.585 19.1113 207.415 18.9336 208.354 18.9336C209.01 18.9336 209.607 19.0339 210.145 19.2344C210.682 19.4258 211.143 19.7311 211.525 20.1504C211.917 20.5605 212.218 21.0983 212.428 21.7637C212.637 22.4199 212.742 23.2083 212.742 24.1289V34H208.477V24.6484C208.477 23.9922 208.395 23.4954 208.23 23.1582C208.076 22.8118 207.848 22.5749 207.547 22.4473C207.246 22.3197 206.886 22.2559 206.467 22.2559C206.011 22.2559 205.605 22.3561 205.25 22.5566C204.904 22.748 204.612 23.0169 204.375 23.3633C204.138 23.7096 203.96 24.1152 203.842 24.5801C203.732 25.0449 203.678 25.5462 203.678 26.084ZM212.305 25.8652L210.951 25.9746C210.951 24.972 211.07 24.0423 211.307 23.1855C211.544 22.3288 211.899 21.5859 212.373 20.957C212.847 20.319 213.435 19.8223 214.137 19.4668C214.848 19.1113 215.673 18.9336 216.611 18.9336C217.304 18.9336 217.933 19.0339 218.498 19.2344C219.072 19.4349 219.564 19.7585 219.975 20.2051C220.394 20.6517 220.717 21.2396 220.945 21.9688C221.173 22.6888 221.287 23.5729 221.287 24.6211V34H216.994V24.6211C216.994 23.974 216.912 23.4818 216.748 23.1445C216.593 22.8073 216.365 22.5749 216.064 22.4473C215.773 22.3197 215.422 22.2559 215.012 22.2559C214.556 22.2559 214.16 22.3516 213.822 22.543C213.485 22.7253 213.202 22.9805 212.975 23.3086C212.747 23.6276 212.578 24.0059 212.469 24.4434C212.359 24.8809 212.305 25.3548 212.305 25.8652ZM231.979 30.4727V24.1289C231.979 23.6823 231.91 23.2995 231.773 22.9805C231.637 22.6615 231.423 22.4108 231.131 22.2285C230.839 22.0462 230.461 21.9551 229.996 21.9551C229.604 21.9551 229.262 22.0234 228.971 22.1602C228.688 22.2969 228.469 22.4928 228.314 22.748C228.169 23.0033 228.096 23.3177 228.096 23.6914H223.83C223.83 23.026 223.98 22.4062 224.281 21.832C224.582 21.2578 225.01 20.752 225.566 20.3145C226.132 19.877 226.806 19.5397 227.59 19.3027C228.374 19.0566 229.253 18.9336 230.229 18.9336C231.386 18.9336 232.416 19.1296 233.318 19.5215C234.23 19.9043 234.95 20.4831 235.479 21.2578C236.007 22.0234 236.271 22.9896 236.271 24.1562V30.3496C236.271 31.2428 236.322 31.9447 236.422 32.4551C236.531 32.9564 236.686 33.3939 236.887 33.7676V34H232.58C232.38 33.5716 232.229 33.043 232.129 32.4141C232.029 31.776 231.979 31.1289 231.979 30.4727ZM232.512 24.9766L232.539 27.3281H230.42C229.946 27.3281 229.536 27.3874 229.189 27.5059C228.852 27.6243 228.579 27.7884 228.369 27.998C228.16 28.1986 228.005 28.4355 227.904 28.709C227.813 28.9733 227.768 29.265 227.768 29.584C227.768 29.8848 227.84 30.1582 227.986 30.4043C228.132 30.6413 228.333 30.8281 228.588 30.9648C228.843 31.1016 229.139 31.1699 229.477 31.1699C230.033 31.1699 230.507 31.0605 230.898 30.8418C231.299 30.623 231.609 30.3587 231.828 30.0488C232.047 29.7298 232.156 29.4336 232.156 29.1602L233.182 30.9375C233.018 31.3021 232.817 31.6803 232.58 32.0723C232.343 32.4551 232.042 32.8151 231.678 33.1523C231.313 33.4805 230.871 33.7493 230.352 33.959C229.841 34.1686 229.226 34.2734 228.506 34.2734C227.576 34.2734 226.733 34.0866 225.977 33.7129C225.22 33.3301 224.614 32.806 224.158 32.1406C223.712 31.4753 223.488 30.7096 223.488 29.8438C223.488 29.069 223.63 28.3809 223.912 27.7793C224.195 27.1777 224.618 26.6673 225.184 26.248C225.758 25.8288 226.478 25.5143 227.344 25.3047C228.21 25.0859 229.221 24.9766 230.379 24.9766H232.512Z" fill="black"/>
<path d="M26.4775 40.043C26.4775 42.9316 28.5279 45.2227 31.1133 45.2227C33.6986 45.2227 35.749 42.9316 35.749 40.043C35.749 37.1543 33.6095 34.8633 31.1133 34.8633C28.6171 34.8633 26.4775 37.2539 26.4775 40.043ZM29.5086 40.043C29.5086 39.0469 30.2218 38.25 31.1133 38.25C32.0048 38.25 32.718 39.0469 32.718 40.043C32.718 41.0391 32.0048 41.9355 31.1133 41.9355C30.2218 41.9355 29.5086 41.0391 29.5086 40.043Z" fill="#0167F3"/>
<path d="M37.1754 40.043C37.1754 42.9316 39.2259 45.2227 41.8112 45.2227C44.3965 45.2227 46.447 42.9316 46.447 40.043C46.447 37.1543 44.3074 34.8633 41.8112 34.8633C39.315 34.8633 37.1754 37.2539 37.1754 40.043ZM40.2065 40.043C40.2065 39.0469 40.9197 38.25 41.8112 38.25C42.7027 38.25 43.4159 39.0469 43.4159 40.043C43.4159 41.0391 42.7027 41.9355 41.8112 41.9355C40.9197 41.9355 40.2065 41.0391 40.2065 40.043Z" fill="#0167F3"/>
<path d="M52.8658 13.1484C52.5092 12.5508 51.6177 12.1523 50.9045 12.1523H22.3766L20.237 1.79297C20.0587 0.796875 19.2563 0 18.3648 0H13.105C12.0352 0 11.2328 0.796875 11.2328 1.99219C11.2328 3.1875 11.946 4.08398 13.105 4.08398H16.9384L22.1983 30.7793C22.3766 31.7754 23.1789 32.5723 24.0704 32.5723H46.5361C47.7842 32.5723 48.854 31.7754 49.0323 30.3809L53.2224 15.9375C53.6681 14.7422 53.4898 13.7461 52.8658 13.1484V13.1484ZM31.559 28.4883H25.7642L24.6945 22.7109H31.4698V28.4883H31.559ZM31.559 20.7188H24.427L23.6247 16.2363H31.559V20.7188ZM39.315 28.4883H33.1637V22.7109H39.315V28.4883ZM39.315 20.7188H33.1637V16.2363H39.315V20.7188ZM45.8229 28.4883H41.098V22.7109H47.5168L45.8229 28.4883ZM48.0517 20.7188H41.0088V16.2363H49.3889L48.0517 20.7188Z" fill="#0167F3"/>
<path d="M19.9695 32.373C19.9695 32.4727 19.9695 32.5723 19.8804 32.5723H15.4229C14.7097 32.5723 14.0857 31.875 14.0857 31.0781C14.0857 30.6797 14.264 30.2812 14.4423 30.082C14.7097 29.7832 14.9771 29.6836 15.3337 29.6836H16.9384C17.295 29.6836 17.6516 29.4844 17.8299 29.2852C18.0082 29.0859 18.0974 28.8867 18.1865 28.6875C18.3648 27.6914 17.6516 26.7949 16.7601 26.7949H7.13198C6.41878 26.7949 5.79473 26.0977 5.79473 25.3008C5.79473 24.9023 5.97303 24.5039 6.15133 24.3047C6.41878 24.0059 6.68623 23.9062 7.04283 23.9062H11.5003C11.8569 23.9062 12.2135 23.707 12.3918 23.5078C12.5701 23.3086 12.6593 23.1094 12.7484 22.9102C12.9267 21.9141 12.2135 21.0176 11.322 21.0176H9.98477C9.27157 21.0176 8.64752 20.3203 8.64752 19.5234C8.64752 19.125 8.82582 18.7266 9.00412 18.5273C9.27157 18.2285 9.53902 18.1289 9.89562 18.1289H14.264C14.6205 18.1289 14.9771 17.9297 15.1554 17.7305C15.4229 17.4316 15.512 17.1328 15.512 16.7344C15.512 15.9375 14.9771 15.3398 14.3531 15.2402H14.264H14.0857H1.33725C0.624048 15.2402 0 14.543 0 13.7461C0 13.3477 0.178299 12.9492 0.356599 12.75C0.624048 12.4512 0.891497 12.3516 1.2481 12.3516H9.98477C10.3414 12.3516 10.6088 12.1523 10.7871 11.9531C10.9654 11.7539 11.0546 11.5547 11.1437 11.3555C11.322 10.3594 10.6088 9.46289 9.71732 9.46289H7.39942C6.68623 9.46289 6.06218 8.76562 6.06218 7.96875C6.06218 7.57031 6.24048 7.17187 6.41878 6.97266C6.68623 6.67383 6.95368 6.57422 7.31027 6.57422H14.6205C14.7097 6.57422 14.7097 6.57422 14.7097 6.67383L19.9695 32.373Z" fill="#0167F3"/>
<path d="M13.1941 31.0781C13.1941 31.4766 13.0158 31.875 12.8375 32.0742C12.5701 32.373 12.3026 32.4727 11.946 32.4727H9.1824C8.4692 32.4727 7.84515 31.875 7.84515 30.9785C7.84515 30.5801 8.02345 30.1816 8.20175 29.9824C8.4692 29.6836 8.73665 29.584 9.09325 29.584H11.8569C12.6592 29.6836 13.1941 30.3809 13.1941 31.0781V31.0781Z" fill="#0167F3"/>
<path d="M7.39941 19.5234C7.39941 19.9219 7.22111 20.3203 7.04281 20.5195C6.86451 20.8184 6.50791 20.918 6.15131 20.918H3.47682C2.85278 21.0176 2.22873 20.3203 2.22873 19.5234C2.22873 19.125 2.40703 18.7266 2.58533 18.5273C2.85278 18.2285 3.12023 18.1289 3.47682 18.1289H6.15131C6.86451 18.1289 7.39941 18.8262 7.39941 19.5234Z" fill="#0167F3"/>
<path d="M70.9631 34.5645C69.3585 34.5645 67.8429 34.2656 66.5948 33.5684C65.2576 32.9707 64.1878 31.9746 63.3854 30.7793C62.5831 29.584 62.0482 28.1895 61.7807 26.4961L66.0599 25.7988C66.3274 27.1934 66.9514 28.2891 67.9321 29.0859C68.9127 29.8828 69.9825 30.1816 71.1414 30.1816C71.8546 30.1816 72.4787 30.082 73.1027 29.7832C73.7268 29.584 74.2617 29.1855 74.7074 28.6875C75.1532 28.1895 75.3315 27.6914 75.3315 26.9941C75.3315 26.7949 75.3315 26.4961 75.2423 26.2969C75.1532 26.0977 75.064 25.7988 74.8857 25.5996C74.7074 25.4004 74.5291 25.2012 74.2617 25.002C73.9942 24.8027 73.6376 24.7031 73.1919 24.5039L67.4863 22.6113C67.0406 22.5117 66.5948 22.3125 65.9708 22.0137C65.4359 21.7148 64.901 21.416 64.3661 20.918C63.8312 20.4199 63.3854 19.8223 63.0288 19.125C62.6722 18.4277 62.4939 17.4316 62.4939 16.2363C62.4939 14.6426 62.8505 13.248 63.5637 12.1523C64.2769 11.0566 65.2576 10.2598 66.5057 9.76172C67.7538 9.26367 69.091 8.96484 70.6065 8.96484C72.1221 8.96484 73.4593 9.26367 74.6183 9.86133C75.7772 10.459 76.7579 11.2559 77.5602 12.252C78.3626 13.248 78.8975 14.6426 79.2541 16.1367L74.7966 17.0332C74.6183 16.2363 74.3508 15.5391 73.9051 15.041C73.4593 14.543 72.9244 14.0449 72.3895 13.8457C71.7655 13.5469 71.1414 13.4473 70.5174 13.3477C69.8933 13.3477 69.2693 13.4473 68.6453 13.6465C68.1104 13.8457 67.5755 14.1445 67.2189 14.6426C66.8623 15.041 66.684 15.5391 66.684 16.1367C66.684 16.6348 66.8623 17.1328 67.1297 17.4316C67.3972 17.7305 67.7538 18.0293 68.1995 18.2285C68.6453 18.4277 69.091 18.627 69.5368 18.7266L73.3702 19.9219C73.9051 20.1211 74.5291 20.3203 75.2423 20.6191C75.9555 20.918 76.5796 21.3164 77.2036 21.8145C77.8277 22.3125 78.3626 22.9102 78.8083 23.8066C79.2541 24.6035 79.4324 25.5996 79.4324 26.8945C79.4324 28.1895 79.1649 29.3848 78.7192 30.3809C78.1843 31.377 77.5602 32.1738 76.7579 32.7715C75.9555 33.3691 74.9749 33.8672 73.9051 34.166C72.8353 34.4648 72.0329 34.5645 70.9631 34.5645Z" fill="#0167F3"/>
<path d="M97.8864 23.8066V34.0664H93.6963V25.4004C93.6963 25.002 93.6963 24.4043 93.6072 23.8066C93.6072 23.209 93.4289 22.5117 93.2506 21.8145C93.0723 21.1172 92.7157 20.6191 92.1808 20.1211C91.735 19.7227 91.0218 19.4238 90.1303 19.4238C89.7737 19.4238 89.4171 19.5234 88.9714 19.623C88.5257 19.7227 88.1691 20.0215 87.8125 20.3203C87.4559 20.7187 87.1884 21.2168 86.921 21.9141C86.6535 22.6113 86.5644 23.5078 86.5644 24.7031V33.9668H82.4635V9.66211H86.1186V17.6309C86.4752 17.1328 86.921 16.7344 87.4559 16.3359C88.5256 15.5391 89.8629 15.1406 91.4676 15.1406C92.7157 15.1406 93.7855 15.4395 94.5878 15.8379C95.3902 16.3359 96.0142 16.9336 96.46 17.6309C96.9057 18.4277 97.2623 19.125 97.4406 20.0215C97.6189 20.8184 97.7972 21.5156 97.7972 22.2129C97.7972 23.0098 97.8864 23.5078 97.8864 23.8066V23.8066Z" fill="#0167F3"/>
<path d="M108.584 34.5645C106.89 34.5645 105.464 34.166 104.216 33.3691C102.968 32.5723 101.987 31.377 101.274 29.9824C100.561 28.4883 100.204 26.8945 100.204 25.002C100.204 23.1094 100.561 21.416 101.274 19.9219C101.987 18.4277 102.968 17.332 104.216 16.5352C105.464 15.7383 106.89 15.3398 108.495 15.3398C110.189 15.3398 111.615 15.7383 112.864 16.5352C114.112 17.332 115.092 18.5273 115.805 19.9219C116.519 21.416 116.875 23.0098 116.875 24.9023C116.875 26.7949 116.519 28.4883 115.805 29.9824C115.092 31.4766 114.112 32.5723 112.864 33.3691C111.705 34.166 110.189 34.5645 108.584 34.5645ZM108.584 30.2812C109.922 30.2812 110.902 29.7832 111.526 28.7871C112.15 27.791 112.507 26.4961 112.507 24.9023C112.507 23.3086 112.15 22.0137 111.526 21.0176C110.902 20.0215 109.922 19.5234 108.584 19.5234C107.693 19.5234 106.98 19.7227 106.356 20.2207C105.821 20.7188 105.375 21.3164 105.107 22.1133C104.84 22.9102 104.662 23.8066 104.662 24.9023C104.662 26.4961 105.018 27.8906 105.642 28.7871C106.356 29.7832 107.247 30.2812 108.584 30.2812V30.2812Z" fill="#0167F3"/>
<path d="M134.259 19.9219C133.635 18.4277 132.744 17.332 131.585 16.4355C130.426 15.6387 129.089 15.1406 127.484 15.1406C125.879 15.1406 124.631 15.5391 123.561 16.4355C123.472 16.5352 123.383 16.6348 123.294 16.7344V15.7383H119.639V42.2344H123.829V33.4687C124.899 34.2656 126.236 34.6641 127.751 34.6641C129.267 34.6641 130.604 34.2656 131.763 33.3691C132.922 32.4727 133.814 31.377 134.438 29.8828C135.062 28.3887 135.418 26.7949 135.418 24.9023C135.24 23.0098 134.973 21.416 134.259 19.9219V19.9219ZM130.515 27.6914C130.248 28.4883 129.802 29.1855 129.267 29.6836C128.732 30.1816 127.93 30.4805 127.038 30.4805C126.147 30.4805 125.344 30.2812 124.81 29.7832C124.275 29.2852 123.829 28.6875 123.651 27.791C123.383 26.9941 123.294 25.998 123.294 24.9023C123.294 23.8066 123.383 22.8105 123.651 22.0137C123.918 21.2168 124.275 20.5195 124.81 20.0215C125.344 19.5234 126.058 19.3242 126.949 19.3242C127.841 19.3242 128.643 19.623 129.178 20.1211C129.802 20.6191 130.248 21.3164 130.515 22.1133C130.783 23.0098 130.961 23.9062 130.961 24.9023C130.872 25.998 130.783 26.8945 130.515 27.6914V27.6914Z" fill="#0167F3"/>
</svg>
